<mxfile host="app.diagrams.net" modified="2024-04-09T13:48:06.740Z" agent="Mozilla/5.0 (Windows NT 10.0; Win64; x64) AppleWebKit/537.36 (KHTML, like Gecko) Chrome/123.0.0.0 Safari/537.36" etag="bYoUd2VjikpvpIv3tSda" version="24.2.3" type="device">
  <diagram name="Pagina-1" id="6HMkDKLsO-dtDdhWWNJo">
    <mxGraphModel dx="1808" dy="652" grid="1" gridSize="10" guides="1" tooltips="1" connect="1" arrows="1" fold="1" page="1" pageScale="1" pageWidth="1500" pageHeight="500" math="0" shadow="0">
      <root>
        <mxCell id="0" />
        <mxCell id="1" parent="0" />
        <mxCell id="7_43AA6f2PgWr8sdFYdx-1" value="1x1 Convolution&lt;br&gt;&lt;b&gt;&lt;font color=&quot;#ea6b66&quot; style=&quot;font-size: 10px;&quot;&gt;64 channels&lt;/font&gt;&lt;/b&gt;" style="rounded=1;whiteSpace=wrap;html=1;fillColor=#f5f5f5;strokeColor=default;strokeWidth=2;fontColor=#333333;" parent="1" vertex="1">
          <mxGeometry x="690" y="318" width="160" height="40" as="geometry" />
        </mxCell>
        <mxCell id="7_43AA6f2PgWr8sdFYdx-2" value="3x3 Convolution&lt;br&gt;&lt;b&gt;&lt;font color=&quot;#ea6b66&quot; style=&quot;font-size: 10px;&quot;&gt;64 channels&lt;/font&gt;&lt;/b&gt;" style="rounded=1;whiteSpace=wrap;html=1;fillColor=#f5f5f5;strokeColor=default;strokeWidth=2;fontColor=#333333;" parent="1" vertex="1">
          <mxGeometry x="690" y="368" width="160" height="40" as="geometry" />
        </mxCell>
        <mxCell id="7_43AA6f2PgWr8sdFYdx-12" style="edgeStyle=orthogonalEdgeStyle;rounded=0;orthogonalLoop=1;jettySize=auto;html=1;exitX=0.5;exitY=1;exitDx=0;exitDy=0;strokeWidth=2;" parent="1" source="7_43AA6f2PgWr8sdFYdx-3" edge="1">
          <mxGeometry relative="1" as="geometry">
            <mxPoint x="770" y="490" as="targetPoint" />
          </mxGeometry>
        </mxCell>
        <mxCell id="7_43AA6f2PgWr8sdFYdx-3" value="3x3 Convolution&lt;br&gt;&lt;b&gt;&lt;font color=&quot;#ea6b66&quot; style=&quot;font-size: 10px;&quot;&gt;256 channels&lt;/font&gt;&lt;/b&gt;" style="rounded=1;whiteSpace=wrap;html=1;fillColor=#f5f5f5;strokeColor=default;strokeWidth=2;fontColor=#333333;" parent="1" vertex="1">
          <mxGeometry x="690" y="418" width="160" height="40" as="geometry" />
        </mxCell>
        <mxCell id="7_43AA6f2PgWr8sdFYdx-11" style="edgeStyle=orthogonalEdgeStyle;rounded=0;orthogonalLoop=1;jettySize=auto;html=1;exitX=0.5;exitY=1;exitDx=0;exitDy=0;entryX=0.5;entryY=0;entryDx=0;entryDy=0;strokeWidth=2;" parent="1" source="7_43AA6f2PgWr8sdFYdx-4" target="7_43AA6f2PgWr8sdFYdx-1" edge="1">
          <mxGeometry relative="1" as="geometry" />
        </mxCell>
        <mxCell id="7_43AA6f2PgWr8sdFYdx-4" value="Input (256 channels)" style="text;html=1;align=center;verticalAlign=middle;whiteSpace=wrap;rounded=0;" parent="1" vertex="1">
          <mxGeometry x="705" y="265" width="130" height="30" as="geometry" />
        </mxCell>
        <mxCell id="7_43AA6f2PgWr8sdFYdx-5" value="&lt;b&gt;&lt;font style=&quot;font-size: 14px;&quot;&gt;Original ResNet design&lt;/font&gt;&lt;/b&gt;" style="text;html=1;align=center;verticalAlign=middle;whiteSpace=wrap;rounded=0;" parent="1" vertex="1">
          <mxGeometry x="675" y="230" width="190" height="30" as="geometry" />
        </mxCell>
        <mxCell id="7_43AA6f2PgWr8sdFYdx-6" value="&lt;b&gt;&lt;font style=&quot;font-size: 14px;&quot;&gt;ResNeXt design&lt;/font&gt;&lt;/b&gt;" style="text;html=1;align=center;verticalAlign=middle;whiteSpace=wrap;rounded=0;" parent="1" vertex="1">
          <mxGeometry x="900" y="230" width="190" height="30" as="geometry" />
        </mxCell>
        <mxCell id="7_43AA6f2PgWr8sdFYdx-7" value="7x7 &lt;i&gt;separable&amp;nbsp;&lt;/i&gt;Convolution&lt;br&gt;&lt;b&gt;&lt;font color=&quot;#ea6b66&quot; style=&quot;font-size: 10px;&quot;&gt;96 channels&lt;/font&gt;&lt;/b&gt;" style="rounded=1;whiteSpace=wrap;html=1;fillColor=#f5f5f5;strokeColor=default;strokeWidth=2;fontColor=#333333;" parent="1" vertex="1">
          <mxGeometry x="915" y="318" width="160" height="40" as="geometry" />
        </mxCell>
        <mxCell id="7_43AA6f2PgWr8sdFYdx-8" value="1x1 Convolution&lt;br&gt;&lt;b&gt;&lt;font color=&quot;#ea6b66&quot; style=&quot;font-size: 10px;&quot;&gt;384 channels&lt;/font&gt;&lt;/b&gt;" style="rounded=1;whiteSpace=wrap;html=1;fillColor=#f5f5f5;strokeColor=default;strokeWidth=2;fontColor=#333333;" parent="1" vertex="1">
          <mxGeometry x="915" y="368" width="160" height="40" as="geometry" />
        </mxCell>
        <mxCell id="7_43AA6f2PgWr8sdFYdx-9" value="1x1 Convolution&lt;br&gt;&lt;b&gt;&lt;font color=&quot;#ea6b66&quot; style=&quot;font-size: 10px;&quot;&gt;96 channels&lt;/font&gt;&lt;/b&gt;" style="rounded=1;whiteSpace=wrap;html=1;fillColor=#d5e8d4;strokeColor=default;strokeWidth=2;" parent="1" vertex="1">
          <mxGeometry x="915" y="418" width="160" height="40" as="geometry" />
        </mxCell>
        <mxCell id="7_43AA6f2PgWr8sdFYdx-10" value="Input (96 channels)" style="text;html=1;align=center;verticalAlign=middle;whiteSpace=wrap;rounded=0;" parent="1" vertex="1">
          <mxGeometry x="930" y="265" width="130" height="30" as="geometry" />
        </mxCell>
        <mxCell id="7_43AA6f2PgWr8sdFYdx-13" style="edgeStyle=orthogonalEdgeStyle;rounded=0;orthogonalLoop=1;jettySize=auto;html=1;exitX=0.5;exitY=1;exitDx=0;exitDy=0;strokeWidth=2;" parent="1" edge="1">
          <mxGeometry relative="1" as="geometry">
            <mxPoint x="1000" y="490" as="targetPoint" />
            <mxPoint x="1000" y="458" as="sourcePoint" />
          </mxGeometry>
        </mxCell>
        <mxCell id="7_43AA6f2PgWr8sdFYdx-14" style="edgeStyle=orthogonalEdgeStyle;rounded=0;orthogonalLoop=1;jettySize=auto;html=1;exitX=0.5;exitY=1;exitDx=0;exitDy=0;entryX=0.5;entryY=0;entryDx=0;entryDy=0;strokeWidth=2;" parent="1" edge="1">
          <mxGeometry relative="1" as="geometry">
            <mxPoint x="1000" y="295" as="sourcePoint" />
            <mxPoint x="1000" y="318" as="targetPoint" />
          </mxGeometry>
        </mxCell>
        <mxCell id="7_43AA6f2PgWr8sdFYdx-15" value="" style="endArrow=classic;html=1;rounded=0;edgeStyle=orthogonalEdgeStyle;strokeWidth=2;" parent="1" edge="1">
          <mxGeometry width="50" height="50" relative="1" as="geometry">
            <mxPoint x="770" y="303" as="sourcePoint" />
            <mxPoint x="770" y="473" as="targetPoint" />
            <Array as="points">
              <mxPoint x="660" y="303" />
              <mxPoint x="660" y="473" />
            </Array>
          </mxGeometry>
        </mxCell>
        <mxCell id="7_43AA6f2PgWr8sdFYdx-16" value="" style="endArrow=classic;html=1;rounded=0;edgeStyle=orthogonalEdgeStyle;strokeWidth=2;" parent="1" edge="1">
          <mxGeometry width="50" height="50" relative="1" as="geometry">
            <mxPoint x="1000" y="303" as="sourcePoint" />
            <mxPoint x="1000" y="473" as="targetPoint" />
            <Array as="points">
              <mxPoint x="890" y="303" />
              <mxPoint x="890" y="473" />
            </Array>
          </mxGeometry>
        </mxCell>
      </root>
    </mxGraphModel>
  </diagram>
</mxfile>
